<?xml version="1.0" standalone="no"?>
<!DOCTYPE svg PUBLIC "-//W3C//DTD SVG 1.1//EN" "http://www.w3.org/Graphics/SVG/1.1/DTD/svg11.dtd" >
<svg xmlns="http://www.w3.org/2000/svg" xmlns:xlink="http://www.w3.org/1999/xlink" version="1.1">
<metadata></metadata>
<defs>
<font id="abyssopelagicregular" horiz-adv-x="898" >
<font-face units-per-em="2048" ascent="1638" descent="-410" />
<missing-glyph horiz-adv-x="508" />
<glyph unicode="&#xd;" horiz-adv-x="508" />
<glyph horiz-adv-x="0" />
<glyph horiz-adv-x="0" />
<glyph unicode=" "  horiz-adv-x="508" />
<glyph unicode="&#x09;" horiz-adv-x="508" />
<glyph unicode="&#xa0;" horiz-adv-x="508" />
<glyph unicode="!" horiz-adv-x="100" d="M0 32v8q14 21 32 28q22 0 36 -28v-8q-7 -16 -32 -32q-19 9 -36 32zM16 244v1112q1 8 8 8h16q8 -1 8 -8v-1112q0 -8 -8 -8h-16q-8 0 -8 8z" />
<glyph unicode="&#x22;" horiz-adv-x="238" d="M0 1408v188q1 8 8 8h16q8 -1 8 -8v-188q0 -8 -8 -8h-16q-8 0 -8 8zM100 1408v188q1 8 8 8h16q8 -1 8 -8v-188q0 -8 -8 -8h-16q-8 0 -8 8z" />
<glyph unicode="#" horiz-adv-x="941" d="M43 450v16q1 8 8 8h216l8 4l-4 8v264l4 8h-224q-8 0 -8 8v16q1 8 8 8h216l8 4l-4 8v212q1 8 8 8h16q8 -1 8 -8v-224h280q8 0 8 8v224h20q8 -1 8 -8v-224h224q8 -1 8 -8v-16q0 -8 -8 -8h-224v-284h224q8 -1 8 -8v-16q0 -8 -8 -8h-224v-220q0 -8 -8 -8h-20v228h-288v-220 q0 -8 -8 -8h-16q-8 0 -8 8v212l4 8h-224q-8 0 -8 8zM303 474h288v284h-288v-284z" />
<glyph unicode="$" d="M0 389v12h32q0 -221 224 -340q47 -20 64 -20v748q-200 81 -200 272v16q0 170 192 260h8v152q1 8 8 8h16q8 -1 8 -8v-140l40 4h32l40 -4v140q1 8 8 8h16q8 -1 8 -8v-152q84 -27 84 -44v-32h-4q-39 29 -80 44v-512q78 0 212 -120q100 -128 100 -256v-32q0 -190 -188 -324 q-49 -32 -124 -52v-232q0 -8 -8 -8h-16q-8 0 -8 8v228l-8 -4h-96l-8 4v-228q0 -8 -8 -8h-16q-8 0 -8 8v232q-143 36 -216 128q-96 117 -96 212q-7 0 -8 40zM152 1041q0 -119 132 -204q29 -16 36 -16v484h-4q-84 -33 -140 -124q-24 -64 -24 -96v-44zM352 33l56 -4q6 0 56 4 v732q0 8 -8 8h-28q-44 0 -76 8v-748zM352 809q47 -4 68 -4h24l20 -4v516q-50 4 -60 4q-2 0 -52 -4v-508zM496 41q94 15 204 128q80 121 80 236q0 197 -192 324q-61 28 -92 36v-724z" />
<glyph unicode="%" horiz-adv-x="1122" d="M0 1068q0 201 216 280q38 8 60 8h24q164 0 256 -180q20 -52 20 -104v-20q0 -145 -156 -240q-57 -32 -132 -32q-198 0 -276 208q-12 29 -12 80zM32 1056q0 -172 200 -240q21 -4 40 -4h32q151 0 228 172q12 32 12 68v32q0 158 -184 232q-30 8 -56 8h-36q-141 0 -220 -164 q-16 -40 -16 -80v-24zM180 8q597 1243 652 1348h28q-144 -314 -652 -1356h-20q-8 0 -8 8zM460 280v12q0 199 216 280q60 8 80 8q178 0 268 -200q12 -51 12 -76v-28q0 -159 -176 -252q-69 -24 -104 -24h-8q-179 0 -272 192q-16 57 -16 88zM492 272q0 -135 152 -216 q54 -24 104 -24q170 0 244 176q10 30 16 84q0 158 -168 240q-49 16 -84 16h-16q-152 0 -232 -164q-16 -40 -16 -80v-32z" />
<glyph unicode="&#x26;" horiz-adv-x="1160" d="M0 412q0 222 220 352l52 24l-124 144q-32 70 -32 124v24q0 155 164 248q62 28 112 28h24q162 0 256 -180q20 -55 20 -108q0 -205 -220 -280q-43 -8 -140 -16q433 -481 500 -552q131 159 160 320q5 40 16 40h16l8 -4q-43 -218 -160 -356q-5 0 -20 -20q32 -40 172 -196 l-8 -4h-24q-6 0 -164 176q-197 -176 -412 -176h-20q-187 0 -332 184q-64 109 -64 228zM32 396q0 -218 224 -332q72 -32 156 -32q216 0 396 168l-512 564q-147 -52 -212 -168q-52 -89 -52 -180v-20zM148 1044q0 -92 100 -176q16 -22 60 -72q44 11 168 20q184 79 184 236v28 q0 146 -164 228q-53 16 -96 16q-179 0 -248 -200q-4 -21 -4 -40v-40z" />
<glyph unicode="'" horiz-adv-x="138" d="M5 1306v188q1 8 8 8h16q8 -1 8 -8v-188q0 -8 -8 -8h-16q-8 0 -8 8z" />
<glyph unicode="(" horiz-adv-x="299" d="M0 696v16q0 505 120 760q24 27 48 40q8 -1 8 -8v-16q-52 -33 -76 -128q-68 -257 -68 -656q0 -553 112 -756l32 -24v-16q0 -8 -12 -8q-39 0 -88 148q-76 273 -76 648z" />
<glyph unicode=")" horiz-adv-x="299" d="M0 -80q54 37 72 100q76 271 76 688q0 508 -104 744l-44 36v16q1 8 8 8h4q44 -25 76 -96q80 -272 80 -480q12 -124 12 -196v-72q0 -298 -72 -616q-52 -152 -100 -152q-8 0 -8 8v12z" />
<glyph unicode="*" horiz-adv-x="299" d="M5 1418v20l4 8l68 -24v72q1 8 8 8h16q8 -1 8 -8v-60l-4 -8h8l64 20l4 -8v-16q0 -12 -64 -28q44 -59 44 -68h-28q-3 0 -44 48q-27 -44 -36 -48h-24q-8 0 -8 8q34 38 44 60q-60 16 -60 24z" />
<glyph unicode="+" horiz-adv-x="917" d="M0 596v16q1 8 8 8h380v380q1 8 8 8h16q8 -1 8 -8v-380h380q8 -1 8 -8v-16q0 -8 -8 -8h-380v-380q0 -8 -8 -8h-16q-8 0 -8 8v380h-380q-8 0 -8 8z" />
<glyph unicode="," horiz-adv-x="147" d="M0 36v8q0 6 28 28h4q23 0 36 -28v-88q0 -8 -8 -8h-20q-8 0 -8 8v44l4 8q-15 0 -36 28z" />
<glyph unicode="-" d="M0 708v16q1 8 8 8h792q8 -1 8 -8v-16q0 -8 -8 -8h-792q-8 0 -8 8z" />
<glyph unicode="." horiz-adv-x="200" d="M0 32v8q0 6 28 28h4q23 0 36 -28v-8q-7 -16 -32 -32q-19 9 -36 32z" />
<glyph unicode="/" horiz-adv-x="569" d="M-119 -16l808 1532h4v-48q0 -9 -804 -1540h-4l-4 8v48z" />
<glyph unicode="0" horiz-adv-x="1345" d="M0 644v76q7 9 24 132q65 218 188 328q107 122 332 172q39 0 56 12h76q7 -7 104 -20q261 -72 404 -312q63 -107 92 -312v-60q0 -126 -84 -312q-35 -78 -180 -216q-186 -124 -332 -124q0 -8 -20 -8h-52q-7 8 -108 20q-240 72 -364 252q-91 130 -112 260q-6 9 -20 108 q-4 0 -4 4zM36 680q0 -317 260 -528q161 -116 344 -116q311 0 508 300q92 166 92 312v68q0 248 -212 460q-172 152 -392 152q-317 0 -516 -316q-84 -165 -84 -332z" />
<glyph unicode="1" horiz-adv-x="299" d="M0 1336v20q1 8 8 8h184q8 -1 8 -8v-1348q0 -8 -8 -8h-20q-8 0 -8 8v1320h-156q-8 0 -8 8z" />
<glyph unicode="2" horiz-adv-x="799" d="M0 8v420q22 145 84 224q121 164 376 164q204 70 204 244v20q0 170 -192 240q-40 8 -68 8q-214 0 -400 -164l-4 8v28q94 103 304 152q44 4 52 12h84l72 -24q78 -24 144 -120q32 -56 44 -140v-16q-12 -103 -72 -180q-91 -108 -296 -108q-139 -37 -212 -128 q-84 -109 -84 -228v-384h656q8 -1 8 -8v-20q0 -8 -8 -8h-684q-8 0 -8 8z" />
<glyph unicode="3" horiz-adv-x="913" d="M0 168v24q1 8 8 8q180 -164 392 -164q248 0 356 244q24 60 24 132q0 212 -208 332q-79 36 -136 36h-20q-8 0 -8 8v24q172 0 244 180q12 32 12 68v20q0 170 -192 240q-40 8 -68 8q-109 0 -224 -48l-4 8v20q0 23 192 48l12 8h60l60 -20q196 -80 196 -272q0 -183 -184 -268 h-4v-4q149 -43 224 -152q80 -110 80 -236v-4q0 -246 -256 -376q-70 -20 -128 -28q0 -4 -4 -4h-36q-169 24 -280 84q-66 41 -108 84z" />
<glyph unicode="4" horiz-adv-x="751" d="M0 784q53 241 184 376q195 200 464 200h8q6 0 12 -12v-16q0 -8 -8 -8h-32q-331 0 -524 -332q-40 -78 -64 -180h620q8 -1 8 -8v-796q0 -8 -8 -8h-24q-8 0 -8 8v772h-620z" />
<glyph unicode="5" horiz-adv-x="841" d="M0 240h28q128 -204 336 -204q227 0 340 224q32 69 32 148q0 250 -256 356q-61 15 -192 28q-112 36 -176 136q-36 72 -36 128v300q1 8 8 8h560q8 -1 8 -8v-20q0 -8 -8 -8h-536v-280q0 -133 156 -216q28 -16 196 -28q147 -43 240 -168q68 -117 68 -224v-4q0 -233 -232 -364 q-51 -24 -148 -40q0 -4 -4 -4h-40q-15 7 -104 24q-177 71 -236 204q-4 8 -4 12z" />
<glyph unicode="6" d="M0 392v36q11 125 116 280q10 6 328 480l124 176h20q8 -1 8 -8l-412 -608h4q102 64 204 64h32q220 0 356 -240q32 -95 32 -156v-12q0 -230 -232 -360q-63 -28 -144 -40q0 -4 -4 -4h-48q-6 8 -76 16q-59 15 -152 76q-106 94 -132 196q-12 31 -24 104zM36 400 q0 -217 224 -332q80 -32 148 -32q232 0 348 240q24 71 24 136q0 212 -208 332q-79 36 -136 36h-56q-163 0 -292 -176q-52 -95 -52 -184v-20z" />
<glyph unicode="7" d="M0 8q8 8 772 1320h-764q-8 0 -8 8v20q1 8 8 8h820v-4l-792 -1356l-8 -4h-20q-8 0 -8 8z" />
<glyph unicode="8" d="M0 392v36q3 60 56 184q86 138 236 184q12 0 12 8q-89 29 -140 112q-44 68 -44 148v12q0 191 208 272q47 9 56 16h48l100 -32q164 -97 164 -252v-20q0 -162 -176 -256h-8q0 -5 68 -28q232 -133 232 -364v-4q0 -233 -232 -364q-51 -24 -148 -40q0 -4 -4 -4h-40 q-10 8 -92 20q-157 63 -192 128q-66 69 -88 168q-16 66 -16 76zM36 400q0 -217 224 -332q80 -32 148 -32q232 0 348 240q24 71 24 136q0 212 -208 332q-79 36 -136 36h-56q-163 0 -292 -176q-52 -95 -52 -184v-20zM152 1048q0 -133 156 -216q57 -20 104 -20q151 0 232 156 q20 49 20 92v20q0 170 -192 240q-40 8 -68 8q-162 0 -240 -172q-12 -37 -12 -68v-40z" />
<glyph unicode="9" horiz-adv-x="684" d="M0 1056v28q8 8 20 80q46 111 144 164q41 20 104 32q0 4 4 4h48l88 -28q92 -38 152 -144q12 -34 28 -112v-1072q0 -8 -8 -8h-20q-8 0 -8 8v928h-4q0 -40 -120 -124q-77 -32 -132 -32q-192 0 -276 204q-12 63 -20 72zM40 1048q0 -133 156 -216q57 -20 104 -20 q166 0 240 180q12 32 12 68v20q0 170 -192 240q-40 8 -68 8q-179 0 -248 -200q-4 -21 -4 -40v-40z" />
<glyph unicode=":" horiz-adv-x="133" d="M0 32v8q14 21 32 28q22 0 36 -28v-8q-7 -16 -32 -32q-19 9 -36 32zM0 780v4q13 24 36 36q25 -16 32 -32v-12q-14 -24 -36 -24q-18 7 -32 28z" />
<glyph unicode=";" horiz-adv-x="143" d="M0 26v8q14 21 32 28q22 0 36 -28v-88q0 -8 -8 -8h-20q-8 0 -8 8v44l4 8q-15 0 -36 28zM0 774v4q13 24 36 36q25 -16 32 -32v-12q-14 -24 -36 -24q-18 7 -32 28z" />
<glyph unicode="&#x3c;" horiz-adv-x="499" d="M0 632l400 532h4v-44l-364 -488l364 -488v-44h-4q-3 0 -400 532z" />
<glyph unicode="=" horiz-adv-x="1014" d="M100 360v16q1 8 8 8h792q8 -1 8 -8v-16q0 -8 -8 -8h-792q-8 0 -8 8zM100 676v16q1 8 8 8h792q8 -1 8 -8v-16q0 -8 -8 -8h-792q-8 0 -8 8z" />
<glyph unicode="&#x3e;" horiz-adv-x="499" d="M0 108v36l368 492l-368 492v36q1 8 8 8q375 -507 400 -536l-404 -536z" />
<glyph unicode="?" horiz-adv-x="799" d="M0 1172v28q94 103 304 152q44 4 52 12h68q9 -8 68 -16q121 -44 180 -156q12 -34 28 -112v-20q-8 -101 -88 -196q-98 -84 -204 -84v32q172 0 244 180q12 32 12 68v20q0 170 -192 240q-40 8 -68 8q-214 0 -400 -164zM376 40q12 28 36 28q24 -8 24 -32q0 -23 -28 -36 q-32 16 -32 40z" />
<glyph unicode="@" horiz-adv-x="1350" d="M0 672v12q0 284 224 508q186 164 416 164q242 0 440 -196q188 -213 188 -460v-44q0 -303 -264 -528q-180 -128 -356 -128h-24q-202 0 -396 160q-228 225 -228 512zM32 676q0 -354 316 -568q145 -76 292 -76q281 0 476 256q124 184 124 388q0 358 -316 572 q-145 76 -292 76q-317 0 -516 -316q-84 -165 -84 -332zM300 444q318 682 336 708l336 -712q-14 -28 -20 -28q-305 649 -320 672q-281 -614 -316 -668q-8 0 -16 28z" />
<glyph unicode="A" horiz-adv-x="1298" d="M0 8q59 105 632 1344h12l628 -1352h-28q-16 23 -592 1252q-12 27 -12 32h-4q-558 -1202 -604 -1284h-24q-8 0 -8 8z" />
<glyph unicode="B" horiz-adv-x="837" d="M0 8v1348q1 8 8 8h432l60 -20q196 -80 196 -272q0 -183 -184 -268h-4v-4q149 -43 224 -152q80 -112 80 -236q0 -257 -260 -380q-46 -16 -116 -28q0 -4 -4 -4h-424q-8 0 -8 8zM36 36h332q316 0 404 288q8 61 8 88q0 212 -208 332q-79 36 -136 36h-20q-8 0 -8 8v20 q0 6 88 20q168 84 168 232v24q0 161 -184 236q-30 8 -56 8h-388v-1292z" />
<glyph unicode="C" horiz-adv-x="1198" d="M0 644v76q7 9 24 132q67 222 188 328q107 122 332 172q39 0 56 12h76q7 -7 104 -20q32 -10 32 -16v-24h-4q-94 24 -172 24q-317 0 -516 -316q-84 -165 -84 -332q0 -317 260 -528q162 -116 344 -116q246 0 440 204h28q8 -1 8 -8q-151 -158 -284 -192q-56 -22 -172 -40h-52 q-7 8 -108 20q-240 72 -364 252q-91 131 -112 260q-6 9 -20 108q-4 0 -4 4z" />
<glyph unicode="D" horiz-adv-x="1098" d="M0 8v1348q1 8 8 8h428q9 -7 112 -20q239 -71 360 -248q128 -192 128 -344q8 0 8 -48v-44q0 -126 -84 -312q-35 -78 -180 -216q-186 -124 -332 -124q0 -8 -20 -8h-420q-8 0 -8 8zM36 36h340q424 0 592 412q40 112 40 200v68q0 248 -212 460q-171 152 -396 152h-364v-1292z " />
<glyph unicode="E" d="M0 8v1348q1 8 8 8h680q8 -1 8 -8v-20q0 -8 -8 -8h-652v-516h364q8 -1 8 -8v-16q0 -8 -8 -8h-364v-744h768q8 -1 8 -8v-20q0 -8 -8 -8h-796q-8 0 -8 8z" />
<glyph unicode="F" d="M0 8v1348q1 8 8 8h796q8 -1 8 -8v-20q0 -8 -8 -8h-768v-516h364q8 -1 8 -8v-16q0 -8 -8 -8h-364v-772q0 -8 -8 -8h-20q-8 0 -8 8z" />
<glyph unicode="G" horiz-adv-x="1098" d="M0 644v76q7 9 24 132q65 218 188 328q107 122 332 172q39 0 56 12h76q7 -7 104 -20q32 -10 32 -16v-24h-4q-94 24 -172 24q-317 0 -516 -316q-84 -165 -84 -332q0 -317 260 -528q161 -116 344 -116q192 0 372 136v404q1 8 8 8h16q8 -1 8 -8v-412q-133 -120 -296 -148 q-8 0 -88 -16h-52q-7 8 -108 20q-240 72 -364 252q-91 130 -112 260q-6 9 -20 108q-4 0 -4 4z" />
<glyph unicode="H" d="M0 8v1348q1 8 8 8h20q8 -1 8 -8v-544h744v544q1 8 8 8h16q8 -1 8 -8v-1348q0 -8 -8 -8h-16q-8 0 -8 8v772h-744v-772q0 -8 -8 -8h-20q-8 0 -8 8z" />
<glyph unicode="I" horiz-adv-x="100" d="M0 8v1348q1 8 8 8h24q8 -1 8 -8v-1348q0 -8 -8 -8h-24q-8 0 -8 8z" />
<glyph unicode="J" d="M0 168v24q1 8 8 8q180 -164 392 -164q230 0 344 216q36 68 36 172v932q1 8 8 8h16q8 -1 8 -8v-944q0 -257 -260 -380q-45 -16 -116 -28q0 -4 -4 -4h-56q-7 8 -108 20q-161 44 -268 148z" />
<glyph unicode="K" d="M0 8v1348q1 8 8 8h20q8 -1 8 -8v-536l728 544h36q8 -1 8 -8q-67 -43 -752 -564l756 -788l-8 -4h-28l-740 764v-756q0 -8 -8 -8h-20q-8 0 -8 8z" />
<glyph unicode="L" d="M0 8v1348q1 8 8 8h20q8 -1 8 -8v-1320h768q8 -1 8 -8v-20q0 -8 -8 -8h-796q-8 0 -8 8z" />
<glyph unicode="M" horiz-adv-x="1336" d="M0 8v1340q1 8 8 8q56 -56 584 -508q35 -36 48 -36q25 25 624 540h4v-1344q0 -8 -8 -8h-16q-8 0 -8 8v1272l4 8h-4q-595 -516 -600 -516h-8q-134 122 -596 516v-1280q0 -8 -8 -8h-16q-8 0 -8 8z" />
<glyph unicode="N" d="M0 8v1352h4q728 -980 772 -1048h4v1044q1 8 8 8h16q8 -1 8 -8v-1348q0 -8 -8 -8h-16q-8 0 -8 8v248q-536 732 -744 1008v-1256q0 -8 -8 -8h-20q-8 0 -8 8z" />
<glyph unicode="O" horiz-adv-x="1345" d="M0 644v76q7 9 24 132q65 218 188 328q107 122 332 172q39 0 56 12h76q7 -7 104 -20q261 -72 404 -312q63 -107 92 -312v-60q0 -126 -84 -312q-35 -78 -180 -216q-186 -124 -332 -124q0 -8 -20 -8h-52q-7 8 -108 20q-240 72 -364 252q-91 130 -112 260q-6 9 -20 108 q-4 0 -4 4zM36 680q0 -317 260 -528q161 -116 344 -116q311 0 508 300q92 166 92 312v68q0 248 -212 460q-172 152 -392 152q-317 0 -516 -316q-84 -165 -84 -332z" />
<glyph unicode="P" horiz-adv-x="680" d="M0 8v1348q1 8 8 8h312l88 -28q92 -38 152 -144q12 -34 28 -112v-20q-18 -111 -64 -168q-89 -112 -256 -112h-228v-772q0 -8 -8 -8h-24q-8 0 -8 8zM40 812h240q197 0 264 188q8 38 8 60v20q0 170 -192 240q-40 8 -72 8h-248v-516z" />
<glyph unicode="Q" horiz-adv-x="1350" d="M0 852v76q7 9 24 132q65 218 188 328q107 122 332 172q39 0 56 12h76q7 -7 104 -20q263 -74 400 -308q67 -104 96 -320v-56q0 -133 -92 -328q-41 -78 -172 -200q-84 -49 -84 -60q0 -140 156 -224q57 -20 104 -20q44 0 84 16l4 -8v-20q0 -16 -100 -24q-71 0 -176 68 q-104 106 -104 204q-133 -60 -256 -60q-332 0 -544 328q-66 109 -92 308q-4 0 -4 4zM36 888q0 -317 260 -528q161 -116 344 -116q118 0 256 60q0 134 -148 220q-52 16 -52 24v24h4q79 0 176 -116q48 -73 48 -132h4q200 110 288 376q24 97 24 156v68q0 248 -212 460 q-172 152 -392 152q-318 0 -516 -316q-84 -165 -84 -332z" />
<glyph unicode="R" d="M0 8v1348q1 8 8 8h432l60 -20q196 -80 196 -272q0 -186 -192 -272q-33 -12 -56 -12q352 -760 364 -780q0 -8 -8 -8h-20q-27 43 -380 808q87 12 144 44q116 89 116 208v20q0 170 -192 240q-40 8 -72 8h-364v-1320q0 -8 -8 -8h-20q-8 0 -8 8z" />
<glyph unicode="S" d="M0 400v4q1 8 8 8h20q7 0 24 -112q51 -147 188 -224q99 -40 168 -40q237 0 352 244q20 64 20 112v44q0 166 -180 296q-92 52 -240 52q-116 30 -180 112q-56 85 -56 160v32q0 141 148 236q30 21 104 36q0 4 4 4h68l104 -36q32 -23 32 -28v-32h-4q-80 60 -172 60 q-179 0 -248 -200q-4 -21 -4 -40v-40q0 -127 148 -212q28 -20 200 -32q163 -50 240 -168q72 -117 72 -228q0 -173 -152 -312q-64 -63 -232 -92q0 -4 -4 -4h-40q-7 7 -88 20q-177 63 -244 196q-36 61 -56 184z" />
<glyph unicode="T" d="M0 1336v20q1 8 8 8h796q8 -1 8 -8v-20q0 -8 -8 -8h-380v-1320q0 -8 -8 -8h-16q-8 0 -8 8v1320h-384q-8 0 -8 8z" />
<glyph unicode="U" d="M0 392v964q1 8 8 8h20q8 -1 8 -8v-956q0 -222 232 -336q77 -28 144 -28q187 0 368 136v1184q1 8 8 8h16q8 -1 8 -8v-1348q0 -8 -8 -8h-16q-8 0 -8 8v124h-4q-97 -82 -280 -120q-19 0 -68 -12h-36q-11 7 -96 20q-157 63 -192 128q-66 69 -88 168q-16 66 -16 76z" />
<glyph unicode="V" horiz-adv-x="1340" d="M0 1348l8 4h24q30 -46 604 -1280h4q565 1217 604 1280h20l8 -4q-627 -1339 -636 -1348q-620 1327 -636 1348z" />
<glyph unicode="W" horiz-adv-x="1345" d="M0 1352v4q1 8 8 8h20q14 0 48 -248q12 -46 184 -1064l380 464l376 -464q220 1283 228 1312h24q8 -1 8 -8q-16 -68 -236 -1352l-8 -4h-12q-16 12 -380 468h-4q-44 -60 -376 -468h-16q-11 0 -92 504q-140 812 -148 844q-4 0 -4 4z" />
<glyph unicode="X" d="M0 8q356 725 384 796l-268 552l8 4h20q52 -86 256 -524q20 33 260 524h24l8 -4q0 -2 -272 -556q368 -748 384 -796v-4h-24q-68 118 -372 760h-8q-341 -711 -372 -760h-20q-8 0 -8 8z" />
<glyph unicode="Y" d="M0 1360l8 4h24q37 -41 376 -548h4q25 45 356 532q0 6 16 16h24q8 -1 8 -8q-35 -39 -392 -576v-772q0 -8 -8 -8h-16q-8 0 -8 8v776q-339 503 -392 576z" />
<glyph unicode="Z" d="M0 8q35 55 644 1320h-516q-8 0 -8 8v20q1 8 8 8h560q8 -1 8 -8l-644 -1320h752q8 -1 8 -8v-20q0 -8 -8 -8h-796q-8 0 -8 8z" />
<glyph unicode="[" horiz-adv-x="299" d="M0 696v16q0 505 120 760q24 27 48 40q8 -1 8 -8v-16q-52 -33 -76 -128q-68 -257 -68 -656q0 -553 112 -756l32 -24v-16q0 -8 -12 -8q-39 0 -88 148q-76 273 -76 648z" />
<glyph unicode="\" horiz-adv-x="569" d="M-100 1452v52h8q800 -1530 800 -1536v-48h-8z" />
<glyph unicode="]" horiz-adv-x="299" d="M0 -80q54 37 72 100q76 271 76 688q0 508 -104 744l-44 36v16q1 8 8 8h4q44 -25 76 -96q80 -272 80 -480q12 -124 12 -196v-72q0 -298 -72 -616q-52 -152 -100 -152q-8 0 -8 8v12z" />
<glyph unicode="^" horiz-adv-x="1014" />
<glyph unicode="_" horiz-adv-x="1024" d="M0 -76q1 8 9 8h1007q9 -1 9 -8v-16q0 -8 -9 -8h-1007q-9 0 -9 8v16z" />
<glyph unicode="`" horiz-adv-x="1024" d="M212 1363q0 31 20.5 51t53.5 20q20 0 40.5 -12t55.5 -47l291 -296h-69l-330 202q-31 20 -46.5 40t-15.5 42z" />
<glyph unicode="a" horiz-adv-x="1345" d="M0 8q59 105 632 1344h12l628 -1352h-28q-16 23 -592 1252q-12 27 -12 32h-4q-558 -1202 -604 -1284h-24q-8 0 -8 8z" />
<glyph unicode="b" d="M0 8v1348q1 8 8 8h432l60 -20q196 -80 196 -272q0 -183 -184 -268h-4v-4q149 -43 224 -152q80 -112 80 -236q0 -257 -260 -380q-46 -16 -116 -28q0 -4 -4 -4h-424q-8 0 -8 8zM36 36h332q316 0 404 288q8 61 8 88q0 212 -208 332q-79 36 -136 36h-20q-8 0 -8 8v20 q0 6 88 20q168 84 168 232v24q0 161 -184 236q-30 8 -56 8h-388v-1292z" />
<glyph unicode="c" horiz-adv-x="1198" d="M0 644v76q7 9 24 132q67 222 188 328q107 122 332 172q39 0 56 12h76q7 -7 104 -20q32 -10 32 -16v-24h-4q-94 24 -172 24q-317 0 -516 -316q-84 -165 -84 -332q0 -317 260 -528q162 -116 344 -116q246 0 440 204h28q8 -1 8 -8q-151 -158 -284 -192q-56 -22 -172 -40h-52 q-7 8 -108 20q-240 72 -364 252q-91 131 -112 260q-6 9 -20 108q-4 0 -4 4z" />
<glyph unicode="d" horiz-adv-x="1098" d="M0 8v1348q1 8 8 8h428q9 -7 112 -20q239 -71 360 -248q128 -192 128 -344q8 0 8 -48v-44q0 -126 -84 -312q-35 -78 -180 -216q-186 -124 -332 -124q0 -8 -20 -8h-420q-8 0 -8 8zM36 36h340q424 0 592 412q40 112 40 200v68q0 248 -212 460q-171 152 -396 152h-364v-1292z " />
<glyph unicode="e" d="M0 8v1348q1 8 8 8h680q8 -1 8 -8v-20q0 -8 -8 -8h-652v-516h364q8 -1 8 -8v-16q0 -8 -8 -8h-364v-744h768q8 -1 8 -8v-20q0 -8 -8 -8h-796q-8 0 -8 8z" />
<glyph unicode="f" d="M0 8v1348q1 8 8 8h796q8 -1 8 -8v-20q0 -8 -8 -8h-768v-516h364q8 -1 8 -8v-16q0 -8 -8 -8h-364v-772q0 -8 -8 -8h-20q-8 0 -8 8z" />
<glyph unicode="g" horiz-adv-x="1098" d="M0 644v76q7 9 24 132q65 218 188 328q107 122 332 172q39 0 56 12h76q7 -7 104 -20q32 -10 32 -16v-24h-4q-94 24 -172 24q-317 0 -516 -316q-84 -165 -84 -332q0 -317 260 -528q161 -116 344 -116q192 0 372 136v404q1 8 8 8h16q8 -1 8 -8v-412q-133 -120 -296 -148 q-8 0 -88 -16h-52q-7 8 -108 20q-240 72 -364 252q-91 130 -112 260q-6 9 -20 108q-4 0 -4 4z" />
<glyph unicode="h" d="M0 8v1348q1 8 8 8h20q8 -1 8 -8v-544h744v544q1 8 8 8h16q8 -1 8 -8v-1348q0 -8 -8 -8h-16q-8 0 -8 8v772h-744v-772q0 -8 -8 -8h-20q-8 0 -8 8z" />
<glyph unicode="i" horiz-adv-x="100" d="M0 8v1348q1 8 8 8h24q8 -1 8 -8v-1348q0 -8 -8 -8h-24q-8 0 -8 8z" />
<glyph unicode="j" d="M0 168v24q1 8 8 8q180 -164 392 -164q230 0 344 216q36 68 36 172v932q1 8 8 8h16q8 -1 8 -8v-944q0 -257 -260 -380q-45 -16 -116 -28q0 -4 -4 -4h-56q-7 8 -108 20q-161 44 -268 148z" />
<glyph unicode="k" d="M0 8v1348q1 8 8 8h20q8 -1 8 -8v-536l728 544h36q8 -1 8 -8q-67 -43 -752 -564l756 -788l-8 -4h-28l-740 764v-756q0 -8 -8 -8h-20q-8 0 -8 8z" />
<glyph unicode="l" d="M0 8v1348q1 8 8 8h20q8 -1 8 -8v-1320h768q8 -1 8 -8v-20q0 -8 -8 -8h-796q-8 0 -8 8z" />
<glyph unicode="m" horiz-adv-x="1336" d="M0 8v1340q1 8 8 8q56 -56 584 -508q35 -36 48 -36q25 25 624 540h4v-1344q0 -8 -8 -8h-16q-8 0 -8 8v1272l4 8h-4q-595 -516 -600 -516h-8q-134 122 -596 516v-1280q0 -8 -8 -8h-16q-8 0 -8 8z" />
<glyph unicode="n" d="M0 8v1352h4q728 -980 772 -1048h4v1044q1 8 8 8h16q8 -1 8 -8v-1348q0 -8 -8 -8h-16q-8 0 -8 8v248q-536 732 -744 1008v-1256q0 -8 -8 -8h-20q-8 0 -8 8z" />
<glyph unicode="o" horiz-adv-x="1345" d="M0 644v76q7 9 24 132q65 218 188 328q107 122 332 172q39 0 56 12h76q7 -7 104 -20q261 -72 404 -312q63 -107 92 -312v-60q0 -126 -84 -312q-35 -78 -180 -216q-186 -124 -332 -124q0 -8 -20 -8h-52q-7 8 -108 20q-240 72 -364 252q-91 130 -112 260q-6 9 -20 108 q-4 0 -4 4zM36 680q0 -317 260 -528q161 -116 344 -116q311 0 508 300q92 166 92 312v68q0 248 -212 460q-172 152 -392 152q-317 0 -516 -316q-84 -165 -84 -332z" />
<glyph unicode="p" horiz-adv-x="680" d="M0 8v1348q1 8 8 8h312l88 -28q92 -38 152 -144q12 -34 28 -112v-20q-18 -111 -64 -168q-89 -112 -256 -112h-228v-772q0 -8 -8 -8h-24q-8 0 -8 8zM40 812h240q197 0 264 188q8 38 8 60v20q0 170 -192 240q-40 8 -72 8h-248v-516z" />
<glyph unicode="q" horiz-adv-x="1350" d="M-9 637v76q7 9 24 132q65 218 188 328q107 122 332 172q39 0 56 12h76q7 -7 104 -20q263 -74 400 -308q67 -104 96 -320v-56q0 -133 -92 -328q-41 -78 -172 -200q-84 -49 -84 -60q0 -140 156 -224q57 -20 104 -20q44 0 84 16l4 -8v-20q0 -16 -100 -24q-71 0 -176 68 q-104 106 -104 204q-133 -60 -256 -60q-332 0 -544 328q-66 109 -92 308q-4 0 -4 4zM27 673q0 -317 260 -528q161 -116 344 -116q118 0 256 60q0 134 -148 220q-52 16 -52 24v24h4q79 0 176 -116q48 -73 48 -132h4q200 110 288 376q24 97 24 156v68q0 248 -212 460 q-172 152 -392 152q-318 0 -516 -316q-84 -165 -84 -332z" />
<glyph unicode="r" d="M0 8v1348q1 8 8 8h432l60 -20q196 -80 196 -272q0 -186 -192 -272q-33 -12 -56 -12q352 -760 364 -780q0 -8 -8 -8h-20q-27 43 -380 808q87 12 144 44q116 89 116 208v20q0 170 -192 240q-40 8 -72 8h-364v-1320q0 -8 -8 -8h-20q-8 0 -8 8z" />
<glyph unicode="s" d="M0 400v4q1 8 8 8h20q7 0 24 -112q51 -147 188 -224q99 -40 168 -40q237 0 352 244q20 64 20 112v44q0 166 -180 296q-92 52 -240 52q-116 30 -180 112q-56 85 -56 160v32q0 141 148 236q30 21 104 36q0 4 4 4h68l104 -36q32 -23 32 -28v-32h-4q-80 60 -172 60 q-179 0 -248 -200q-4 -21 -4 -40v-40q0 -127 148 -212q28 -20 200 -32q163 -50 240 -168q72 -117 72 -228q0 -173 -152 -312q-64 -63 -232 -92q0 -4 -4 -4h-40q-7 7 -88 20q-177 63 -244 196q-36 61 -56 184z" />
<glyph unicode="t" d="M0 1336v20q1 8 8 8h796q8 -1 8 -8v-20q0 -8 -8 -8h-380v-1320q0 -8 -8 -8h-16q-8 0 -8 8v1320h-384q-8 0 -8 8z" />
<glyph unicode="u" d="M0 392v964q1 8 8 8h20q8 -1 8 -8v-956q0 -222 232 -336q77 -28 144 -28q187 0 368 136v1184q1 8 8 8h16q8 -1 8 -8v-1348q0 -8 -8 -8h-16q-8 0 -8 8v124h-4q-97 -82 -280 -120q-19 0 -68 -12h-36q-11 7 -96 20q-157 63 -192 128q-66 69 -88 168q-16 66 -16 76z" />
<glyph unicode="v" horiz-adv-x="1340" d="M0 1348l8 4h24q30 -46 604 -1280h4q565 1217 604 1280h20l8 -4q-627 -1339 -636 -1348q-620 1327 -636 1348z" />
<glyph unicode="w" horiz-adv-x="1345" d="M0 1352v4q1 8 8 8h20q14 0 48 -248q12 -46 184 -1064l380 464l376 -464q220 1283 228 1312h24q8 -1 8 -8q-16 -68 -236 -1352l-8 -4h-12q-16 12 -380 468h-4q-44 -60 -376 -468h-16q-11 0 -92 504q-140 812 -148 844q-4 0 -4 4z" />
<glyph unicode="x" d="M0 8q356 725 384 796l-268 552l8 4h20q52 -86 256 -524q20 33 260 524h24l8 -4q0 -2 -272 -556q368 -748 384 -796v-4h-24q-68 118 -372 760h-8q-341 -711 -372 -760h-20q-8 0 -8 8z" />
<glyph unicode="y" d="M0 1360l8 4h24q37 -41 376 -548h4q25 45 356 532q0 6 16 16h24q8 -1 8 -8q-35 -39 -392 -576v-772q0 -8 -8 -8h-16q-8 0 -8 8v776q-339 503 -392 576z" />
<glyph unicode="z" d="M0 8q35 55 644 1320h-516q-8 0 -8 8v20q1 8 8 8h560q8 -1 8 -8l-644 -1320h752q8 -1 8 -8v-20q0 -8 -8 -8h-796q-8 0 -8 8z" />
<glyph unicode="{" horiz-adv-x="1014" d="M240 638v60q172 5 223 71t51 133v468q0 74 77 141.5t185 67.5h108v-50h-90q-61 0 -107 -33.5t-47 -91.5v-500q0 -83 -60.5 -158.5t-142.5 -76.5v-2q82 -1 143 -76t61 -158l-1 -500q1 -58 47 -91.5t107 -33.5h90v-50h-108q-108 0 -184.5 67.5t-77.5 141.5v468 q0 66 -51 132t-223 71z" />
<glyph unicode="|" horiz-adv-x="1014" d="M0 -492v2228q1 8 8 8h16q8 -1 8 -8v-2228q0 -8 -8 -8h-16q-8 0 -8 8z" />
<glyph unicode="}" horiz-adv-x="1014" d="M130 -192h90q61 0 107 33.5t47 91.5l-1 500q0 83 61 158t144 76v2q-83 1 -143.5 76.5t-60.5 158.5v500q-1 58 -47 91.5t-107 33.5h-90v50h108q108 0 185 -67.5t77 -141.5v-468q0 -67 51 -133t223 -71v-60q-172 -5 -223 -71t-51 -132v-468q-1 -74 -77.5 -141.5 t-184.5 -67.5h-108v50z" />
<glyph unicode="~" horiz-adv-x="1014" d="M94 556v156q64 73 123 99t114 26q64 0 181.5 -49.5t172.5 -49.5q52 0 108.5 28t129.5 112v-156q-63 -72 -122 -97.5t-116 -25.5q-60 0 -177.5 48.5t-176.5 48.5q-51 0 -107.5 -28t-129.5 -112z" />
<glyph unicode="&#xa1;" horiz-adv-x="672" />
<glyph unicode="&#xa2;" horiz-adv-x="1139" />
<glyph unicode="&#xa3;" horiz-adv-x="913" d="M0 8v16q1 8 8 8h108v1048q0 154 164 248q62 28 112 28h20q213 0 396 -156v-36h-4q-183 160 -404 160q-179 0 -248 -200q-4 -21 -4 -40v-276h420q8 -1 8 -8v-16q0 -8 -8 -8h-412l-8 4v-748h652q8 -1 8 -8v-16q0 -8 -8 -8h-792q-8 0 -8 8z" />
<glyph unicode="&#xa4;" horiz-adv-x="1014" d="M122 413l118 117q-32 46 -48 103q-12 42 -12 84q0 44 13 87q16 55 47 99l-118 118l80 81l118 -118q44 30 99 46q44 14 89 14q41 0 83 -12q57 -17 102 -48l118 118l80 -81l-117 -117q31 -46 48 -102q12 -42 12 -85q0 -42 -12 -85q-17 -56 -48 -102l117 -117l-80 -81 l-118 118q-45 -32 -101 -48q-42 -12 -85 -12q-42 0 -85 12q-57 16 -102 48l-118 -118zM284 716q0 -28 9 -56q16 -59 57 -100q41 -40 99 -57q29 -8 58 -8t58 8q58 17 99 57q40 41 57 99q9 29 9 58t-9 58q-17 58 -57 99q-41 40 -100 57q-29 8 -58 8t-58 -9q-58 -17 -98 -56 q-39 -40 -56 -98q-10 -30 -10 -60z" />
<glyph unicode="&#xa5;" horiz-adv-x="1262" d="M8 1176q0 19 10.5 27.5t32.5 8.5q27 0 123 -8t164 -8h88q33 0 41 -6.5t8 -26.5q0 -8 -15 -14t-38 -6q-6 0 -18.5 2t-18.5 2q-24 0 -37.5 -9.5t-13.5 -25.5q0 -18 16.5 -52t46.5 -77l158 -221q13 -19 33 -53q41 -70 71 -70q9 0 16.5 5t14.5 15l277 396q8 12 13 26.5 t5 24.5q0 18 -10 27t-37 14q-15 2 -41 4q-47 3 -47 25q0 15 8 22.5t25 7.5q3 0 15 -1q56 -7 108 -7h139q30 0 65 1t37 1q11 0 18.5 -4.5t8.5 -11.5q0 -28 -38 -34q-18 -3 -27 -5q-63 -15 -147 -117q-7 -9 -12 -15l-169 -206h323q15 0 24 -6t9 -17q0 -15 -6 -20.5t-23 -5.5 h-366q-46 -57 -96.5 -112.5t-52.5 -59.5h511q18 0 25.5 -5.5t7.5 -17.5q0 -14 -7 -21t-22 -7h-530q0 -11 -1 -30.5t-1 -29.5l2 -215q0 -114 5.5 -150t20.5 -44q30 -17 107.5 -19t77.5 -31q0 -12 -10 -20t-25 -8q-2 0 -35.5 4t-64.5 4q-91 0 -208.5 -4t-142.5 -4q-31 0 -40 4 t-9 16t8 18.5t37 12.5q9 2 25 5q74 16 92 32q17 13 24 47t7 102l-2 242q0 19 -1.5 35t-4.5 32l-484 1q-14 0 -21 6.5t-7 19.5t6.5 19t21.5 6h467l-121 172h-344q-17 0 -23.5 5.5t-6.5 18.5q0 14 6 19.5t22 5.5h307q-43 57 -108 155q-131 197 -227 197q-7 0 -13 5.5t-6 11.5z " />
<glyph unicode="&#xa6;" horiz-adv-x="1014" d="M427 371h160v-789h-160v789zM427 789v789h160v-789h-160z" />
<glyph unicode="&#xa7;" horiz-adv-x="1014" d="M170 1130q0 148 89 237q82 79 216 86q8 1 17 1h3q66 0 163 -16.5t97 -41.5v-194h-51q-5 81 -80 132q-70 47 -149 51h-15q-78 0 -125 -44.5t-47 -117.5q0 -132 287 -269q149 -67 204.5 -143.5t55.5 -187.5q0 -171 -101 -282q-47 -39 -99 -64q108 -56 154 -118 q55 -77 55 -187q0 -171 -101 -283q-124 -102 -277 -105v1q-6 -1 -13 -1h-3q-66 0 -163 16.5t-97 41.5v194h51q5 -81 80 -132q68 -45 145 -50q113 6 185 69q72 64 72 165q0 125 -316 276q-123 64 -175.5 137t-52.5 177q0 148 89 237q67 65 170 82l-40 19q-123 64 -175.5 137 t-52.5 177zM297 571q0 -123 248 -250q56 16 97 53q73 65 73 166q0 5 -1 10h-2q-1 14 -4 27q-22 61 -113 127q-59 29 -126 29q-78 0 -125 -44.5t-47 -117.5z" />
<glyph unicode="&#xa8;" horiz-adv-x="1024" d="M209 1263q0 13 14 26l71 72q13 12 25 12q11 0 27 -14l69 -73q10 -14 10 -25q0 -13 -12 -27l-69 -75q-17 -17 -25 -17q-14 0 -25 12l-76 86q-9 12 -9 23zM574 1263q0 13 14 26l71 72q13 12 25 12q11 0 27 -13l69 -74q10 -14 10 -25q0 -13 -12 -26l-69 -76q-17 -17 -25 -17 q-14 0 -25 12l-76 87q-9 11 -9 22z" />
<glyph unicode="&#xa9;" horiz-adv-x="1674" d="M100 718q0 148 55.5 283t159.5 238q102 104 238.5 160.5t286.5 56.5q145 0 280 -56.5t239 -160.5q102 -101 158.5 -238t56.5 -283q0 -147 -56.5 -282t-162.5 -240q-105 -105 -239 -159.5t-283 -54.5q-146 0 -278 55.5t-238 160.5q-106 104 -161.5 237.5t-55.5 282.5z M160 718q0 -137 51 -259t148 -219q98 -96 219 -147t256 -51q137 0 259.5 50.5t219.5 145.5q97 98 149 221.5t52 258.5q0 134 -52 259.5t-145 219.5q-96 96 -220 147.5t-258 51.5q-137 0 -262 -51.5t-220 -147.5t-146 -219.5t-51 -259.5zM351 719q0 126 65.5 244t187.5 184.5 t254 66.5q38 0 75 -6.5t76 -20.5q5 -1 9 -1q19 0 26 30h42l72 -198h-44q-52 94 -131 124q-72 26 -147 26h-15q-86 -8 -166.5 -71t-121.5 -177q-33 -90 -33 -184q0 -25 2 -50q11 -121 69.5 -224t149.5 -152q72 -40 166 -42q124 0 194 56t70 126h53v-100q0 -46 -96.5 -86.5 t-242.5 -40.5q-142 0 -264 68t-186 185t-64 243z" />
<glyph unicode="&#xaa;" horiz-adv-x="648" />
<glyph unicode="&#xab;" horiz-adv-x="944" d="M174 479l342 303h14v-37l-205 -266l205 -266v-37h-14zM487 479l342 303h14v-37l-205 -266l205 -266v-37h-14z" />
<glyph unicode="&#xac;" horiz-adv-x="1014" d="M87 667v100h840v-491l-1 -1h-98v392h-741z" />
<glyph unicode="&#xad;" d="M0 708v16q1 8 8 8h792q8 -1 8 -8v-16q0 -8 -8 -8h-792q-8 0 -8 8z" />
<glyph unicode="&#xae;" horiz-adv-x="1674" d="M100 718q0 148 55.5 283t159.5 238q102 104 238.5 160.5t286.5 56.5q145 0 280 -56.5t239 -160.5q102 -101 158.5 -238t56.5 -283q0 -147 -56.5 -282t-162.5 -240q-105 -105 -239 -159.5t-283 -54.5q-146 0 -278 55.5t-238 160.5q-106 104 -161.5 237.5t-55.5 282.5z M160 718q0 -137 51 -259t148 -219q98 -96 219 -147t256 -51q137 0 259.5 50.5t219.5 145.5q97 98 149 221.5t52 258.5q0 134 -52 259.5t-145 219.5q-96 96 -220 147.5t-258 51.5q-137 0 -262 -51.5t-220 -147.5t-146 -219.5t-51 -259.5zM524 269v50h43q37 0 37 121v538 q0 121 -37 121h-43v70h356q64 -1 125 -42q60 -41 92.5 -114t32.5 -152q0 -78 -32 -150.5t-114 -134.5l82 -116q100 -141 150 -141h34v-50h-346v50h45q30 0 30 22q0 29 -69 114l-75 102q-42 0 -84 42v-159q0 -121 36 -121h53v-50h-316zM751 725l3 -8q23 -56 56 -81 q29 -22 56 -22h6q31 4 61.5 38.5t46.5 97.5q13 50 13 103q0 13 -1 27q-4 67 -28 124.5t-56.5 76t-63.5 18.5h-93v-374z" />
<glyph unicode="&#xaf;" horiz-adv-x="670" />
<glyph unicode="&#xb0;" horiz-adv-x="674" d="M60 1164q0 116 81.5 197t197.5 81q115 0 196 -81.5t81 -196.5q0 -114 -82 -196t-197 -82q-117 0 -197 81t-80 197zM130 1163q0 -87 61 -147t148 -60t147 60t60 147t-60.5 148t-146.5 61t-147.5 -61t-61.5 -148z" />
<glyph unicode="&#xb1;" horiz-adv-x="1014" />
<glyph unicode="&#xb2;" horiz-adv-x="1014" />
<glyph unicode="&#xb3;" horiz-adv-x="1014" />
<glyph unicode="&#xb4;" horiz-adv-x="1024" d="M316 1078l291 297q35 35 55.5 47t40.5 12q33 0 53.5 -20t20.5 -51q0 -22 -15.5 -42t-46.5 -40l-330 -203h-69z" />
<glyph unicode="&#xb5;" horiz-adv-x="1180" />
<glyph unicode="&#xb6;" horiz-adv-x="1024" d="M93 1086q0 157 107.5 253t285.5 96h443v-70h-127v-1365h-82v1365h-166v-1365h-84v738q-174 8 -275.5 102.5t-101.5 245.5z" />
<glyph unicode="&#xb7;" horiz-adv-x="508" d="M129 709q0 15 16 31l82 84q15 14 29 14q13 0 31 -16l80 -86q12 -16 12 -29q0 -15 -14 -31l-80 -88q-20 -20 -29 -20q-16 0 -29 14l-88 101q-10 13 -10 26z" />
<glyph unicode="&#xb8;" horiz-adv-x="1024" d="M360 -290q85 -52 152 -52q66 0 94.5 21.5t28.5 66.5t-49 64q-40 16 -102 16q-16 0 -34 -2l48 176h63l-37 -104q32 4 62 5q86 0 134 -40.5t48 -113.5q0 -76 -58.5 -120.5t-160.5 -44.5q-109 0 -189 32v96z" />
<glyph unicode="&#xb9;" horiz-adv-x="1014" />
<glyph unicode="&#xba;" horiz-adv-x="718" />
<glyph unicode="&#xbb;" horiz-adv-x="944" d="M101 176v37l205 266l-205 266v37h14l342 -303l-342 -303h-14zM414 176v37l205 266l-205 266v37h14l342 -303l-342 -303h-14z" />
<glyph unicode="&#xbc;" horiz-adv-x="1708" />
<glyph unicode="&#xbd;" horiz-adv-x="1964" />
<glyph unicode="&#xbe;" horiz-adv-x="1708" />
<glyph unicode="&#xbf;" horiz-adv-x="748" />
<glyph unicode="&#xc0;" horiz-adv-x="1540" />
<glyph unicode="&#xc1;" horiz-adv-x="1540" />
<glyph unicode="&#xc2;" horiz-adv-x="1540" />
<glyph unicode="&#xc3;" horiz-adv-x="1540" />
<glyph unicode="&#xc4;" horiz-adv-x="1540" />
<glyph unicode="&#xc5;" horiz-adv-x="1540" />
<glyph unicode="&#xc6;" horiz-adv-x="2118" />
<glyph unicode="&#xc7;" horiz-adv-x="1399" />
<glyph unicode="&#xc8;" horiz-adv-x="1151" />
<glyph unicode="&#xc9;" horiz-adv-x="1151" />
<glyph unicode="&#xca;" horiz-adv-x="1151" />
<glyph unicode="&#xcb;" horiz-adv-x="1151" />
<glyph unicode="&#xcc;" horiz-adv-x="657" />
<glyph unicode="&#xcd;" horiz-adv-x="657" />
<glyph unicode="&#xce;" horiz-adv-x="657" />
<glyph unicode="&#xcf;" horiz-adv-x="657" />
<glyph unicode="&#xd0;" horiz-adv-x="1518" />
<glyph unicode="&#xd1;" horiz-adv-x="1554" />
<glyph unicode="&#xd2;" horiz-adv-x="1614" />
<glyph unicode="&#xd3;" horiz-adv-x="1614" />
<glyph unicode="&#xd4;" horiz-adv-x="1614" />
<glyph unicode="&#xd5;" horiz-adv-x="1614" />
<glyph unicode="&#xd6;" horiz-adv-x="1614" />
<glyph unicode="&#xd7;" horiz-adv-x="1014" d="M161 470l247 247l-247 248l99 98l247 -247l248 247l98 -99l-247 -247l247 -247l-99 -99l-247 247l-247 -247z" />
<glyph unicode="&#xd8;" horiz-adv-x="1614" />
<glyph unicode="&#xd9;" horiz-adv-x="1501" />
<glyph unicode="&#xda;" horiz-adv-x="1501" />
<glyph unicode="&#xdb;" horiz-adv-x="1501" />
<glyph unicode="&#xdc;" horiz-adv-x="1501" />
<glyph unicode="&#xdd;" horiz-adv-x="1233" />
<glyph unicode="&#xde;" horiz-adv-x="1120" />
<glyph unicode="&#xdf;" horiz-adv-x="1251" />
<glyph unicode="&#xe0;" horiz-adv-x="922" />
<glyph unicode="&#xe1;" horiz-adv-x="922" />
<glyph unicode="&#xe2;" horiz-adv-x="922" />
<glyph unicode="&#xe3;" horiz-adv-x="922" />
<glyph unicode="&#xe4;" horiz-adv-x="922" />
<glyph unicode="&#xe5;" horiz-adv-x="922" />
<glyph unicode="&#xe6;" horiz-adv-x="1454" />
<glyph unicode="&#xe7;" horiz-adv-x="905" />
<glyph unicode="&#xe8;" horiz-adv-x="909" />
<glyph unicode="&#xe9;" horiz-adv-x="909" />
<glyph unicode="&#xea;" horiz-adv-x="909" />
<glyph unicode="&#xeb;" horiz-adv-x="909" />
<glyph unicode="&#xec;" horiz-adv-x="514" />
<glyph unicode="&#xed;" horiz-adv-x="514" />
<glyph unicode="&#xee;" horiz-adv-x="514" />
<glyph unicode="&#xef;" horiz-adv-x="514" />
<glyph unicode="&#xf0;" horiz-adv-x="1139" />
<glyph unicode="&#xf1;" horiz-adv-x="1108" />
<glyph unicode="&#xf2;" horiz-adv-x="1010" />
<glyph unicode="&#xf3;" horiz-adv-x="1010" />
<glyph unicode="&#xf4;" horiz-adv-x="1010" />
<glyph unicode="&#xf5;" horiz-adv-x="1010" />
<glyph unicode="&#xf6;" horiz-adv-x="1010" />
<glyph unicode="&#xf7;" horiz-adv-x="1014" d="M87 647v140h839l1 -1v-139h-840zM382 377q0 15 16 31l82 84q15 14 29 14q13 0 31 -16l80 -86q12 -16 12 -29q0 -15 -14 -31l-80 -88q-20 -20 -29 -20q-16 0 -29 14l-88 101q-10 13 -10 26zM382 1070q0 15 16 31l82 84q15 14 29 14q13 0 31 -16l80 -86q12 -16 12 -29 q0 -15 -14 -31l-80 -88q-20 -20 -29 -20q-16 0 -29 14l-88 101q-10 13 -10 26z" />
<glyph unicode="&#xf8;" horiz-adv-x="1010" />
<glyph unicode="&#xf9;" horiz-adv-x="1059" />
<glyph unicode="&#xfa;" horiz-adv-x="1059" />
<glyph unicode="&#xfb;" horiz-adv-x="1059" />
<glyph unicode="&#xfc;" horiz-adv-x="1059" />
<glyph unicode="&#xfd;" horiz-adv-x="868" />
<glyph unicode="&#xfe;" horiz-adv-x="1010" />
<glyph unicode="&#xff;" horiz-adv-x="868" />
<glyph unicode="&#x2c6;" horiz-adv-x="1024" d="M221 1079l232 355h118l232 -355h-58l-233 216l-233 -216h-58z" />
<glyph unicode="&#x2dc;" horiz-adv-x="1024" d="M234 1132q19 106 68 158.5t129 52.5q46 -1 113 -24q64 -23 112 -23h4q36 0 58 20t36 66h54q-20 -103 -68.5 -154t-126.5 -51h-4q-50 0 -113 23q-66 24 -114 24q-39 0 -60.5 -20.5t-33.5 -71.5h-54z" />
<glyph unicode="&#x2000;" horiz-adv-x="872" />
<glyph unicode="&#x2001;" horiz-adv-x="1744" />
<glyph unicode="&#x2002;" horiz-adv-x="872" />
<glyph unicode="&#x2003;" horiz-adv-x="1744" />
<glyph unicode="&#x2004;" horiz-adv-x="581" />
<glyph unicode="&#x2005;" horiz-adv-x="436" />
<glyph unicode="&#x2006;" horiz-adv-x="290" />
<glyph unicode="&#x2007;" horiz-adv-x="290" />
<glyph unicode="&#x2008;" horiz-adv-x="218" />
<glyph unicode="&#x2009;" horiz-adv-x="348" />
<glyph unicode="&#x200a;" horiz-adv-x="96" />
<glyph unicode="&#x2010;" d="M0 708v16q1 8 8 8h792q8 -1 8 -8v-16q0 -8 -8 -8h-792q-8 0 -8 8z" />
<glyph unicode="&#x2011;" d="M0 708v16q1 8 8 8h792q8 -1 8 -8v-16q0 -8 -8 -8h-792q-8 0 -8 8z" />
<glyph unicode="&#x2012;" d="M0 708v16q1 8 8 8h792q8 -1 8 -8v-16q0 -8 -8 -8h-792q-8 0 -8 8z" />
<glyph unicode="&#x2013;" horiz-adv-x="1108" d="M56 419v120h996v-120h-996z" />
<glyph unicode="&#x2014;" horiz-adv-x="2048" d="M0 419v120h2048v-120h-2048z" />
<glyph unicode="&#x2018;" horiz-adv-x="557" d="M186 1233q0 109 71 226.5t139 117.5v-43q-73 -43 -87 -190q0 -119 129 -161v-42l-119 -125q-44 0 -88.5 65.5t-44.5 151.5z" />
<glyph unicode="&#x2019;" horiz-adv-x="557" d="M119 1410v42l119 125q44 0 88.5 -65.5t44.5 -151.5q0 -109 -71 -226.5t-139 -117.5v43q73 43 87 190q0 119 -129 161z" />
<glyph unicode="&#x201a;" horiz-adv-x="557" d="M119 114v42l119 125q44 0 88.5 -65.5t44.5 -151.5q0 -109 -71 -226.5t-139 -117.5v43q73 43 87 190q0 119 -129 161z" />
<glyph unicode="&#x201c;" horiz-adv-x="910" d="M186 1233q0 109 71 226.5t139 117.5v-43q-73 -43 -87 -190q0 -119 129 -161v-42l-119 -125q-44 0 -88.5 65.5t-44.5 151.5zM539 1233q0 109 71 226.5t139 117.5v-43q-73 -43 -87 -190q0 -119 129 -161v-42l-119 -125q-44 0 -88.5 65.5t-44.5 151.5z" />
<glyph unicode="&#x201d;" horiz-adv-x="910" d="M119 1410v42l119 125q44 0 88.5 -65.5t44.5 -151.5q0 -109 -71 -226.5t-139 -117.5v43q73 43 87 190q0 119 -129 161zM472 1410v42l119 125q44 0 88.5 -65.5t44.5 -151.5q0 -109 -71 -226.5t-139 -117.5v43q73 43 87 190q0 119 -129 161z" />
<glyph unicode="&#x201e;" horiz-adv-x="910" d="M119 114v42l119 125q44 0 88.5 -65.5t44.5 -151.5q0 -109 -71 -226.5t-139 -117.5v43q73 43 87 190q0 119 -129 161zM472 114v42l119 125q44 0 88.5 -65.5t44.5 -151.5q0 -109 -71 -226.5t-139 -117.5v43q73 43 87 190q0 119 -129 161z" />
<glyph unicode="&#x2022;" horiz-adv-x="1024" d="M216 718q0 123 87 209t210 86q122 0 208.5 -86.5t86.5 -208.5t-87.5 -209.5t-209.5 -87.5q-123 0 -209 87t-86 210z" />
<glyph unicode="&#x2026;" horiz-adv-x="2048" d="M129 136q0 15 16 31l82 84q15 14 29 14q13 0 31 -16l80 -86q12 -16 12 -29q0 -15 -14 -31l-80 -88q-20 -20 -29 -20q-16 0 -29 14l-88 101q-10 13 -10 26zM812 136q0 15 16 31l82 84q15 14 29 14q13 0 31 -16l80 -86q12 -16 12 -29q0 -15 -14 -31l-80 -88 q-20 -20 -29 -20q-16 0 -29 14l-88 101q-10 13 -10 26zM1495 136q0 15 16 31l82 84q15 14 29 14q13 0 31 -16l80 -86q12 -16 12 -29q0 -15 -14 -31l-80 -88q-20 -20 -29 -20q-16 0 -29 14l-88 101q-10 13 -10 26z" />
<glyph unicode="&#x202f;" horiz-adv-x="348" />
<glyph unicode="&#x2039;" horiz-adv-x="631" d="M174 479l342 303h14v-37l-205 -266l205 -266v-37h-14z" />
<glyph unicode="&#x203a;" horiz-adv-x="631" d="M101 176v37l205 266l-205 266v37h14l342 -303l-342 -303h-14z" />
<glyph unicode="&#x205f;" horiz-adv-x="436" />
<glyph unicode="&#x20ac;" horiz-adv-x="1014" d="M-44 653l17 60h87v29q0 16 1 31h-71l17 60h58q14 145 76 281q81 178 226 274t298 96q43 0 87 -8q40 -10 82 -29q8 -6 16 -6q20 0 34 45h41l84 -281l-40 -1q-49 134 -138 178q-43 22 -81 32v3q-50 16 -101 16q-17 0 -34 -2q-120 -12 -226 -113.5t-157 -273.5 q-32 -104 -39 -211h706l-17 -60h-692q0 -30 2 -60h674l-17 -60h-652q17 -158 83 -298q74 -157 193 -236q102 -68 216 -69q186 3 256 91q74 91 74 185h48v-143q0 -70 -111 -127q-105 -54 -267 -56q-181 0 -325.5 98t-223.5 274q-62 135 -76 281h-108z" />
<glyph unicode="&#x2122;" horiz-adv-x="1497" />
<glyph unicode="&#x25fc;" horiz-adv-x="1360" d="M0 0v1360h1360v-1360h-1360z" />
</font>
</defs>
</svg>
